<svg viewBox="0 0 16 16" fill="none" xmlns="http://www.w3.org/2000/svg" id="Open-In-New-Window--Streamline-Radix.svg" height="16" width="16"><desc>Open In New Window Streamline Icon: https://streamlinehq.com</desc><path fill-rule="evenodd" clip-rule="evenodd" d="M12.8 13.866666666666667c0.58912 0 1.0666666666666667 -0.4775466666666666 1.0666666666666667 -1.0666666666666667V3.2c0 -0.5891093333333333 -0.4775466666666666 -1.0666666666666667 -1.0666666666666667 -1.0666666666666667H3.2c-0.5891093333333333 0 -1.0666666666666667 0.47755733333333333 -1.0666666666666667 1.0666666666666667v3.7333333333333334c0 0.29454933333333333 0.238784 0.5333333333333333 0.5333333333333333 0.5333333333333333s0.5333333333333333 -0.238784 0.5333333333333333 -0.5333333333333333V3.2h9.6v9.6H9.066666666666666c-0.29454933333333333 0 -0.5333333333333333 0.23882666666666666 -0.5333333333333333 0.5333333333333333s0.238784 0.5333333333333333 0.5333333333333333 0.5333333333333333H12.8ZM9.6 6.933333333333334l0 0.00033066666666666666V10.133333333333333c0 0.29454933333333333 -0.238784 0.5333333333333333 -0.5333333333333333 0.5333333333333333S8.533333333333333 10.427882666666667 8.533333333333333 10.133333333333333V8.220917333333333L3.0437866666666666 13.710506666666667c-0.20827733333333331 0.20821333333333333 -0.5459626666666666 0.20821333333333333 -0.7542399999999999 0 -0.208288 -0.20832 -0.208288 -0.5460266666666667 0 -0.7543466666666667L7.779082666666667 7.466666666666667H5.866666666666666c-0.29454933333333333 0 -0.5333333333333333 -0.238784 -0.5333333333333333 -0.5333333333333333s0.238784 -0.5333333333333333 0.5333333333333333 -0.5333333333333333h3.2c0.07230933333333334 0 0.14126933333333333 0.014389333333333334 0.20414933333333332 0.040469333333333336 0.06197333333333333 0.025642666666666664 0.120096 0.06346666666666666 0.17070933333333332 0.11348266666666666 0.09715199999999999 0.09601066666666667 0.15762133333333334 0.22907733333333333 0.158464 0.3762666666666667l0 0.00031999999999999997" fill="#000000" stroke-width="1"></path></svg>